<svg width="608" height="467" viewBox="0 0 608 467" fill="none" xmlns="http://www.w3.org/2000/svg">
<g clip-path="url(#clip0)">
<path d="M139.998 323.191L187.071 249.191L81.6484 182.178L27.2056 267.764L114.403 323.191H139.998Z" fill="#F0F0F0"/>
<path d="M206.705 346.276H90.1021V322.813H206.705V346.276ZM91.6164 344.763H205.19V324.327H91.6164V344.763Z" fill="#3F3D56"/>
<path d="M192.319 342.113C196.5 342.113 199.89 338.725 199.89 334.545C199.89 330.364 196.5 326.976 192.319 326.976C188.137 326.976 184.747 330.364 184.747 334.545C184.747 338.725 188.137 342.113 192.319 342.113Z" fill="#ED6A4C"/>
<path d="M171.118 342.113C175.3 342.113 178.69 338.725 178.69 334.545C178.69 330.364 175.3 326.976 171.118 326.976C166.937 326.976 163.547 330.364 163.547 334.545C163.547 338.725 166.937 342.113 171.118 342.113Z" fill="#ED6A4C"/>
<path d="M149.918 342.113C154.099 342.113 157.489 338.725 157.489 334.545C157.489 330.364 154.099 326.976 149.918 326.976C145.736 326.976 142.346 330.364 142.346 334.545C142.346 338.725 145.736 342.113 149.918 342.113Z" fill="#ED6A4C"/>
<path d="M128.717 342.113C132.899 342.113 136.289 338.725 136.289 334.545C136.289 330.364 132.899 326.976 128.717 326.976C124.536 326.976 121.146 330.364 121.146 334.545C121.146 338.725 124.536 342.113 128.717 342.113Z" fill="#ED6A4C"/>
<path d="M107.517 342.113C111.699 342.113 115.089 338.725 115.089 334.545C115.089 330.364 111.699 326.976 107.517 326.976C103.335 326.976 99.9453 330.364 99.9453 334.545C99.9453 338.725 103.335 342.113 107.517 342.113Z" fill="#ED6A4C"/>
<path d="M345.265 85.5284V28.0049H374.037V0H233.206V140.781H353.594V127.017C353.594 124.451 354.1 121.91 355.082 119.54C356.064 117.169 357.504 115.015 359.319 113.201C361.134 111.387 363.289 109.947 365.66 108.965C368.031 107.984 370.573 107.478 373.14 107.478H374.037V85.5284H345.265Z" fill="#F0F0F0"/>
<path d="M501.24 363.306H407.353V382.985H501.24V363.306Z" fill="#ED6A4C"/>
<path d="M521.684 266.425H383.88V284.59H521.684V266.425Z" fill="#F0F0F0"/>
<path d="M589.071 465.486H0V467H589.071V465.486Z" fill="#3F3D56"/>
<path d="M545.296 467H373.14C367.757 466.994 362.596 464.854 358.79 461.049C354.984 457.244 352.843 452.085 352.837 446.704V127.017C352.843 121.636 354.984 116.477 358.79 112.672C362.596 108.868 367.757 106.727 373.14 106.721H545.296C550.679 106.727 555.84 108.868 559.646 112.672C563.452 116.477 565.593 121.636 565.599 127.017V446.704C565.593 452.085 563.452 457.244 559.646 461.049C555.839 464.854 550.679 466.994 545.296 467ZM373.14 108.235C368.158 108.241 363.383 110.221 359.861 113.742C356.338 117.263 354.357 122.037 354.351 127.017V446.704C354.357 451.684 356.338 456.458 359.861 459.979C363.383 463.5 368.158 465.481 373.14 465.486H545.296C550.277 465.481 555.053 463.5 558.575 459.979C562.098 456.458 564.079 451.684 564.085 446.704V127.017C564.079 122.037 562.098 117.263 558.575 113.742C555.053 110.221 550.277 108.241 545.296 108.235H373.14Z" fill="#3F3D56"/>
<path d="M438.775 121.859C437.876 121.859 436.998 121.593 436.251 121.094C435.504 120.595 434.921 119.885 434.578 119.056C434.234 118.226 434.144 117.313 434.319 116.432C434.494 115.551 434.927 114.742 435.562 114.106C436.198 113.471 437.007 113.039 437.888 112.864C438.77 112.688 439.683 112.778 440.513 113.122C441.343 113.466 442.053 114.048 442.552 114.795C443.051 115.541 443.318 116.42 443.318 117.318C443.316 118.522 442.837 119.676 441.986 120.527C441.134 121.379 439.979 121.858 438.775 121.859ZM438.775 114.29C438.176 114.29 437.59 114.468 437.092 114.8C436.594 115.133 436.206 115.606 435.977 116.159C435.747 116.712 435.687 117.321 435.804 117.908C435.921 118.496 436.21 119.035 436.633 119.459C437.057 119.882 437.596 120.17 438.184 120.287C438.771 120.404 439.38 120.344 439.934 120.115C440.487 119.886 440.96 119.498 441.293 119C441.626 118.502 441.803 117.916 441.803 117.318C441.802 116.515 441.483 115.745 440.915 115.178C440.347 114.61 439.578 114.291 438.775 114.29Z" fill="#3F3D56"/>
<path d="M483.447 116.561H450.132V118.075H483.447V116.561Z" fill="#3F3D56"/>
<path d="M551.97 128.671V189.222C535.905 189.221 520.499 182.842 509.139 171.486C497.78 160.131 491.398 144.73 491.397 128.671H551.97Z" fill="#ED6A4C"/>
<path d="M552.727 446.564H365.709V127.914H552.727V446.564ZM367.223 445.05H551.213V129.428H367.223V445.05Z" fill="#3F3D56"/>
<path opacity="0.1" d="M508.055 185.438C519.345 185.438 528.498 176.288 528.498 165.002C528.498 153.715 519.345 144.566 508.055 144.566C496.764 144.566 487.611 153.715 487.611 165.002C487.611 176.288 496.764 185.438 508.055 185.438Z" fill="black"/>
<path d="M505.026 187.708C516.317 187.708 525.469 178.559 525.469 167.272C525.469 155.986 516.317 146.836 505.026 146.836C493.736 146.836 484.583 155.986 484.583 167.272C484.583 178.559 493.736 187.708 505.026 187.708Z" fill="#ED6A4C"/>
<path d="M402.81 140.781H374.037V151.378H402.81V140.781Z" fill="#3F3D56"/>
<path d="M418.71 241.447H389.938V252.044H418.71V241.447Z" fill="#3F3D56"/>
<path d="M529.255 280.806H389.938V261.126H529.255V280.806ZM391.452 279.292H527.741V262.64H391.452V279.292Z" fill="#3F3D56"/>
<path d="M521.684 323.948H383.88V342.113H521.684V323.948Z" fill="#F0F0F0"/>
<path d="M418.71 298.971H389.938V309.567H418.71V298.971Z" fill="#3F3D56"/>
<path d="M529.255 338.329H389.938V318.65H529.255V338.329ZM391.452 336.815H527.741V320.164H391.452V336.815Z" fill="#3F3D56"/>
<path d="M507.298 378.444H411.896V357.251H507.298V378.444ZM413.41 376.93H505.783V358.765H413.41V376.93Z" fill="#3F3D56"/>
<path d="M525.469 273.237C525.469 274.795 524.988 276.315 524.091 277.59C523.195 278.864 521.927 279.831 520.46 280.359C518.993 280.886 517.399 280.948 515.896 280.536C514.393 280.125 513.053 279.259 512.06 278.058L512.053 278.05C511.329 277.173 510.812 276.143 510.541 275.039C510.27 273.934 510.252 272.782 510.487 271.669C510.723 270.557 511.206 269.511 511.902 268.611C512.597 267.711 513.486 266.978 514.504 266.469C515.521 265.96 516.64 265.686 517.778 265.669C518.916 265.651 520.043 265.89 521.075 266.368C522.108 266.846 523.019 267.55 523.742 268.429C524.465 269.308 524.98 270.338 525.25 271.443C525.25 271.444 525.25 271.445 525.25 271.446C525.251 271.447 525.251 271.447 525.252 271.448C525.253 271.449 525.253 271.449 525.254 271.45C525.255 271.45 525.256 271.45 525.257 271.45C525.397 272.035 525.468 272.635 525.469 273.237Z" fill="#ED6A4C"/>
<path opacity="0.1" d="M525.469 273.237C525.469 274.795 524.988 276.315 524.092 277.59C523.195 278.864 521.927 279.831 520.46 280.359C518.993 280.886 517.399 280.948 515.896 280.536C514.393 280.125 513.053 279.259 512.06 278.058L512.053 278.05C511.913 277.465 511.842 276.866 511.841 276.264C511.841 274.706 512.322 273.186 513.218 271.911C514.115 270.636 515.383 269.669 516.85 269.142C518.317 268.615 519.911 268.553 521.414 268.964C522.917 269.376 524.257 270.242 525.25 271.443C525.25 271.444 525.25 271.445 525.25 271.446C525.251 271.447 525.251 271.447 525.252 271.448C525.253 271.449 525.254 271.449 525.255 271.45C525.255 271.45 525.256 271.45 525.257 271.45C525.397 272.036 525.468 272.635 525.469 273.237Z" fill="black"/>
<path d="M520.927 285.347C525.108 285.347 528.498 281.958 528.498 277.778C528.498 273.598 525.108 270.209 520.927 270.209C516.745 270.209 513.355 273.598 513.355 277.778C513.355 281.958 516.745 285.347 520.927 285.347Z" fill="#ED6A4C"/>
<path d="M525.469 330.76C525.469 332.318 524.988 333.839 524.091 335.113C523.195 336.388 521.927 337.355 520.46 337.882C518.993 338.41 517.399 338.472 515.896 338.06C514.393 337.648 513.053 336.783 512.06 335.582L512.053 335.574C511.329 334.696 510.812 333.667 510.541 332.562C510.27 331.457 510.252 330.306 510.487 329.193C510.723 328.08 511.206 327.035 511.902 326.134C512.597 325.234 513.486 324.502 514.504 323.993C515.521 323.483 516.64 323.21 517.778 323.192C518.916 323.175 520.043 323.414 521.075 323.892C522.108 324.37 523.019 325.074 523.742 325.953C524.465 326.831 524.98 327.861 525.25 328.966C525.25 328.967 525.25 328.968 525.25 328.969C525.251 328.97 525.251 328.971 525.252 328.972C525.253 328.972 525.253 328.973 525.254 328.973C525.255 328.974 525.256 328.974 525.257 328.974C525.397 329.559 525.468 330.159 525.469 330.76Z" fill="#ED6A4C"/>
<path opacity="0.1" d="M525.469 330.76C525.469 332.318 524.988 333.838 524.092 335.113C523.195 336.388 521.927 337.355 520.46 337.882C518.993 338.41 517.399 338.472 515.896 338.06C514.393 337.648 513.053 336.783 512.06 335.581L512.053 335.574C511.913 334.989 511.842 334.389 511.841 333.788C511.841 332.229 512.322 330.709 513.218 329.435C514.115 328.16 515.383 327.193 516.85 326.666C518.317 326.138 519.911 326.076 521.414 326.488C522.917 326.9 524.257 327.765 525.25 328.966C525.25 328.967 525.25 328.968 525.25 328.969C525.251 328.97 525.251 328.971 525.252 328.972C525.253 328.972 525.254 328.973 525.255 328.973C525.255 328.974 525.256 328.974 525.257 328.974C525.397 329.559 525.468 330.158 525.469 330.76Z" fill="black"/>
<path d="M520.927 342.87C525.108 342.87 528.498 339.482 528.498 335.301C528.498 331.121 525.108 327.733 520.927 327.733C516.745 327.733 513.355 331.121 513.355 335.301C513.355 339.482 516.745 342.87 520.927 342.87Z" fill="#ED6A4C"/>
<path d="M393.723 36.3306H354.351V75.6888H393.723V36.3306Z" fill="#F0F0F0"/>
<path d="M508.055 65.0924C506.258 65.0924 504.501 64.5597 503.007 63.5617C501.513 62.5637 500.348 61.1451 499.66 59.4855C498.973 57.8259 498.793 55.9997 499.143 54.2378C499.494 52.4759 500.359 50.8576 501.63 49.5873C502.901 48.3171 504.52 47.452 506.282 47.1016C508.045 46.7511 509.871 46.931 511.532 47.6184C513.192 48.3059 514.611 49.47 515.609 50.9637C516.608 52.4573 517.141 54.2133 517.141 56.0097C517.138 58.4178 516.18 60.7264 514.476 62.4292C512.773 64.1319 510.464 65.0897 508.055 65.0924ZM508.055 48.4408C506.557 48.4408 505.093 48.8847 503.848 49.7164C502.603 50.5481 501.633 51.7302 501.059 53.1132C500.486 54.4963 500.336 56.0181 500.629 57.4863C500.921 58.9546 501.642 60.3032 502.701 61.3617C503.76 62.4203 505.109 63.1411 506.577 63.4332C508.046 63.7252 509.569 63.5753 510.952 63.0025C512.336 62.4296 513.518 61.4595 514.35 60.2148C515.182 58.9701 515.626 57.5067 515.626 56.0097C515.624 54.003 514.825 52.0792 513.406 50.6603C511.987 49.2413 510.062 48.4431 508.055 48.4408Z" fill="#3F3D56"/>
<path d="M308.164 191.493H288.478V171.814H308.164V191.493ZM289.993 189.979H306.65V173.327H289.993V189.979Z" fill="#3F3D56"/>
<path d="M608 338.329H588.314V318.65H608V338.329ZM589.828 336.815H606.486V320.164H589.828V336.815Z" fill="#3F3D56"/>
<path d="M219.579 206.378L222.957 208.197L234.452 214.39L253.01 224.386L263.825 204.327C264.844 202.442 265.481 200.375 265.699 198.244C265.918 196.113 265.714 193.96 265.099 191.908C264.484 189.856 263.47 187.945 262.116 186.285C260.761 184.625 259.092 183.249 257.205 182.234C253.172 180.057 248.551 179.216 244.009 179.832C239.466 180.448 235.237 182.489 231.93 185.662L231.924 185.668C230.297 187.23 228.924 189.037 227.854 191.023L219.579 206.378Z" fill="#2F2E41"/>
<path d="M270.231 410.943L267.964 435.874L259.461 437.007L253.793 408.676L270.231 410.943Z" fill="#FFB8B8"/>
<path d="M257.194 437.007C257.194 437.007 267.963 431.341 270.231 435.874C270.231 435.874 268.53 449.473 275.332 451.173C282.134 452.873 284.968 464.772 275.332 465.905C265.696 467.039 259.461 463.639 256.06 463.639C252.659 463.639 256.06 451.74 256.06 451.74L257.194 437.007Z" fill="#2F2E41"/>
<path d="M201.644 410.943L203.912 435.874L212.414 437.007L218.082 408.676L201.644 410.943Z" fill="#FFB8B8"/>
<path d="M214.681 437.007C214.681 437.007 203.911 431.341 201.644 435.874C201.644 435.874 203.344 449.473 196.542 451.173C189.74 452.873 186.906 464.772 196.542 465.905C206.179 467.039 212.414 463.639 215.815 463.639C219.216 463.639 215.815 451.739 215.815 451.739L214.681 437.007Z" fill="#2F2E41"/>
<path d="M248.124 210.922C256.263 210.922 262.862 204.327 262.862 196.19C262.862 188.054 256.263 181.458 248.124 181.458C239.985 181.458 233.386 188.054 233.386 196.19C233.386 204.327 239.985 210.922 248.124 210.922Z" fill="#FFB8B8"/>
<path d="M201.077 225.088L212.981 243.787L227.151 242.654L250.392 244.354C250.392 244.354 252.585 239.968 254.376 235.701C255.357 233.57 256.111 231.343 256.627 229.055C257.194 225.088 249.258 221.122 249.258 221.122C249.258 221.122 248.946 221.065 248.425 220.94C247.733 220.776 246.667 220.504 245.5 220.107C242.864 219.212 239.695 217.694 239.055 215.455C237.921 211.489 246.424 205.823 246.424 205.823L236.221 196.19C236.221 196.19 227.157 208.775 216.149 211.642C215.511 211.811 214.864 211.943 214.211 212.039C214.177 212.044 214.148 212.05 214.114 212.056C202.211 213.756 201.077 225.088 201.077 225.088Z" fill="#FFB8B8"/>
<path d="M207.312 219.988L201.077 225.088C201.077 225.088 195.976 249.453 197.676 256.253C199.377 263.052 197.109 269.285 197.109 270.418C197.109 271.552 192.008 314.049 192.008 314.049C192.008 314.049 181.805 336.714 192.575 334.447C203.345 332.181 199.377 309.516 199.377 309.516L212.414 269.852V236.421L207.312 219.988Z" fill="#FFB8B8"/>
<path d="M252.092 224.521L256.627 227.921L258.894 275.518L275.899 316.315C275.899 316.315 288.369 336.147 280.434 336.714C272.498 337.281 267.397 316.315 267.397 316.315L252.092 277.218L249.825 239.254L252.092 224.521Z" fill="#FFB8B8"/>
<path d="M223.75 227.921C223.75 227.921 235.087 235.854 253.226 233.021C253.226 233.021 258.327 243.22 255.493 248.887C252.659 254.553 258.894 268.152 260.028 269.852C261.161 271.552 274.198 306.683 278.733 344.647C283.268 382.611 295.738 408.676 284.968 412.075C274.198 415.475 252.092 419.442 249.825 416.042C247.557 412.642 244.156 328.214 244.156 328.214L237.921 360.512C237.921 360.512 246.424 415.475 240.189 416.609C233.953 417.742 194.842 414.342 195.976 407.542C197.109 400.743 208.446 365.045 208.446 365.045C208.446 365.045 207.879 293.65 219.216 280.051C219.216 280.051 223.75 272.685 217.515 263.052C211.28 253.42 211.847 238.121 211.847 238.121C211.847 238.121 216.382 238.121 223.75 227.921Z" fill="#2F2E41"/>
<path d="M214.211 212.038L223.751 233.021L226.018 231.888L216.149 211.642L214.211 212.038Z" fill="#2F2E41"/>
<path d="M245.5 220.107L252.659 235.854L254.377 235.701L253.793 233.021L248.425 220.94C247.733 220.776 246.668 220.504 245.5 220.107Z" fill="#2F2E41"/>
<path d="M222.957 208.197C223.502 209.95 224.552 211.503 225.976 212.662C227.401 213.821 229.135 214.534 230.963 214.711C232.79 214.889 234.63 214.524 236.251 213.662C237.872 212.799 239.202 211.478 240.075 209.863C232.905 200.491 239.055 194.604 250.703 190.15C251.581 188.522 251.954 186.67 251.775 184.829C251.596 182.989 250.874 181.243 249.7 179.814C246.489 179.404 243.227 179.716 240.153 180.728C237.078 181.739 234.269 183.425 231.93 185.662L231.924 185.668L223.648 201.012C223.059 202.103 222.694 203.301 222.575 204.535C222.457 205.769 222.586 207.014 222.957 208.197Z" fill="#2F2E41"/>
<path d="M239.338 201.29C240.434 201.29 241.322 199.768 241.322 197.89C241.322 196.012 240.434 194.49 239.338 194.49C238.243 194.49 237.354 196.012 237.354 197.89C237.354 199.768 238.243 201.29 239.338 201.29Z" fill="#FFB8B8"/>
<path d="M245.25 192.343L262.289 200.06L265.413 193.17C264.875 190.652 263.748 188.296 262.125 186.297L250.397 180.987L245.25 192.343Z" fill="#2F2E41"/>
<path d="M286.207 344.384C290.389 344.384 293.778 340.995 293.778 336.815C293.778 332.635 290.389 329.246 286.207 329.246C282.025 329.246 278.635 332.635 278.635 336.815C278.635 340.995 282.025 344.384 286.207 344.384Z" fill="#ED6A4C"/>
<path d="M43.1253 389.379C45.8582 389.379 48.0737 387.164 48.0737 384.432C48.0737 381.7 45.8582 379.485 43.1253 379.485C40.3924 379.485 38.177 381.7 38.177 384.432C38.177 387.164 40.3924 389.379 43.1253 389.379Z" fill="#FF6584"/>
<path d="M68.1257 410.213H66.6113V466.534H68.1257V410.213Z" fill="#3F3D56"/>
<path d="M67.3686 418.177C71.7689 418.177 75.3361 414.611 75.3361 410.213C75.3361 405.814 71.7689 402.248 67.3686 402.248C62.9683 402.248 59.4011 405.814 59.4011 410.213C59.4011 414.611 62.9683 418.177 67.3686 418.177Z" fill="#3F3D56"/>
<path d="M67.3685 444.924C67.3685 444.924 66.2303 420.453 42.897 423.297L67.3685 444.924Z" fill="#3F3D56"/>
</g>
<defs>
<clipPath id="clip0">
<rect width="608" height="467" fill="white"/>
</clipPath>
</defs>
</svg>
