<svg width="487" height="404" viewBox="0 0 487 404" fill="none" xmlns="http://www.w3.org/2000/svg">
<g clip-path="url(#clip0)">
<path d="M347.915 91.4626H344.455C343.772 91.4626 343.219 92.0157 343.219 92.6979V139.101C343.219 139.783 343.772 140.336 344.455 140.336H347.915C348.598 140.336 349.151 139.783 349.151 139.101V92.6979C349.151 92.0157 348.598 91.4626 347.915 91.4626Z" fill="#3F3D56"/>
<path d="M325.381 0H169.014C157.396 0 147.977 9.41631 147.977 21.0319V382.159C147.977 393.775 157.396 403.191 169.014 403.191H325.381C337 403.191 346.419 393.775 346.419 382.159V21.0319C346.419 9.41631 337 0 325.381 0Z" fill="#3F3D56"/>
<path d="M318.799 10.502H296.036V13.2395C296.036 14.9435 295.7 16.6308 295.047 18.2051C294.395 19.7793 293.439 21.2095 292.233 22.4141C291.027 23.6187 289.596 24.5741 288.021 25.2255C286.446 25.877 284.758 26.2118 283.054 26.2109H210.66C208.955 26.2118 207.267 25.877 205.692 25.2255C204.117 24.5741 202.686 23.6187 201.481 22.4141C200.275 21.2095 199.319 19.7793 198.666 18.2051C198.014 16.6308 197.678 14.9435 197.678 13.2395V10.502H176.365C172.185 10.502 168.176 12.1619 165.22 15.1167C162.265 18.0715 160.604 22.0791 160.604 26.2578V376.961C160.604 381.139 162.265 385.147 165.22 388.102C168.176 391.056 172.185 392.716 176.365 392.716H318.799C322.979 392.716 326.988 391.056 329.944 388.102C332.899 385.147 334.56 381.139 334.56 376.961V26.2848C334.563 24.2134 334.158 22.1617 333.368 20.247C332.577 18.3323 331.417 16.5922 329.953 15.1263C328.489 13.6603 326.751 12.4974 324.837 11.7039C322.923 10.9104 320.871 10.502 318.799 10.502Z" fill="white"/>
<path d="M253.679 12.0409H230.145C228.992 12.0409 228.057 12.9755 228.057 14.1284V15.5757C228.057 16.7286 228.992 17.6632 230.145 17.6632H253.679C254.833 17.6632 255.767 16.7286 255.767 15.5757V14.1284C255.767 12.9755 254.833 12.0409 253.679 12.0409Z" fill="#E6E8EC"/>
<path d="M263.152 18.0452C264.916 18.0452 266.346 16.6157 266.346 14.8524C266.346 13.089 264.916 11.6595 263.152 11.6595C261.389 11.6595 259.959 13.089 259.959 14.8524C259.959 16.6157 261.389 18.0452 263.152 18.0452Z" fill="#E6E8EC"/>
<path d="M248.41 244.074C269.142 244.074 285.949 227.272 285.949 206.545C285.949 185.819 269.142 169.016 248.41 169.016C227.677 169.016 210.87 185.819 210.87 206.545C210.87 227.272 227.677 244.074 248.41 244.074Z" fill="white"/>
<path d="M297.785 201.305C297.785 211.225 294.842 220.923 289.328 229.171C283.815 237.42 275.979 243.849 266.811 247.645C257.643 251.441 247.554 252.434 237.822 250.498C228.089 248.562 219.149 243.785 212.133 236.77C205.116 229.755 200.338 220.817 198.402 211.087C196.467 201.357 197.461 191.272 201.258 182.107C205.056 172.942 211.487 165.108 219.738 159.597C227.989 154.086 237.69 151.144 247.613 151.144C254.202 151.145 260.726 152.442 266.814 154.963C272.901 157.484 278.432 161.179 283.091 165.837C287.749 170.495 291.445 176.024 293.966 182.11C296.488 188.196 297.785 194.718 297.785 201.305ZM241.813 227.855L279.031 190.648C279.333 190.347 279.572 189.991 279.735 189.598C279.898 189.205 279.982 188.784 279.982 188.359C279.982 187.933 279.898 187.512 279.735 187.119C279.572 186.727 279.333 186.37 279.031 186.07L274.452 181.525C274.152 181.224 273.796 180.985 273.404 180.822C273.011 180.659 272.591 180.576 272.166 180.576C271.741 180.576 271.32 180.659 270.928 180.822C270.535 180.985 270.179 181.224 269.879 181.525L239.524 211.872L225.351 197.669C224.742 197.064 223.919 196.725 223.061 196.725C222.203 196.725 221.38 197.064 220.771 197.669L216.192 202.274C215.587 202.883 215.247 203.706 215.247 204.563C215.247 205.421 215.587 206.244 216.192 206.852L237.235 227.882C237.536 228.183 237.892 228.422 238.285 228.585C238.678 228.748 239.099 228.832 239.525 228.832C239.95 228.832 240.371 228.748 240.764 228.585C241.157 228.422 241.514 228.183 241.815 227.882L241.813 227.855Z" fill="#FF7C50"/>
<path d="M154.19 79.487H153.67C152.988 79.487 152.435 80.04 152.435 80.7223V92.7151C152.435 93.3974 152.988 93.9504 153.67 93.9504H154.19C154.872 93.9504 155.425 93.3974 155.425 92.7151V80.7223C155.425 80.04 154.872 79.487 154.19 79.487Z" fill="#3F3D56"/>
<path d="M154.461 105.971H153.562C152.879 105.971 152.326 106.524 152.326 107.206V129.908C152.326 130.59 152.879 131.143 153.562 131.143H154.461C155.143 131.143 155.696 130.59 155.696 129.908V107.206C155.696 106.524 155.143 105.971 154.461 105.971Z" fill="#3F3D56"/>
<path d="M154.352 139.951H153.616C152.933 139.951 152.38 140.504 152.38 141.187V164.105C152.38 164.787 152.933 165.34 153.616 165.34H154.352C155.035 165.34 155.588 164.787 155.588 164.105V141.187C155.588 140.504 155.035 139.951 154.352 139.951Z" fill="#3F3D56"/>
<path d="M112.631 207.088C112.717 207.171 112.827 207.224 112.945 207.239C113.063 207.254 113.183 207.231 113.287 207.172C113.065 207.176 112.844 207.147 112.631 207.088Z" fill="url(#paint0_linear)"/>
<path d="M137.431 216.786L136.784 220.312L136.284 223.009L135.375 227.943L126.565 234.109C126.565 234.109 125.77 233.429 124.46 232.358C120.85 229.386 113.26 223.334 107.688 220.085C106.254 219.171 104.703 218.457 103.078 217.961L137.431 216.786Z" fill="#FEB9B9"/>
<path d="M130.968 219.409C130.968 219.409 141.24 221.172 141.842 216.786C142.444 212.4 136.554 210.03 131.563 209.735C126.572 209.44 96.6163 211.498 96.6163 211.498C96.6163 211.498 91.3323 218.543 110.416 219.722L130.968 219.409Z" fill="#3F3D56"/>
<path d="M153.433 74.6797H99.6919V138.387H153.433V74.6797Z" fill="#2F2E41"/>
<path opacity="0.1" d="M153.433 74.9688H99.6919V138.676H153.433V74.9688Z" fill="black"/>
<path d="M36.7071 183.738C35.8222 183.961 34.6913 184.817 33.4335 186.054C28.0173 191.415 20.2599 203.996 20.2599 203.996C10.342 192.185 21.3169 182.854 25.995 179.647C27.1324 178.871 27.8964 178.443 27.8964 178.443L36.7071 183.738Z" fill="#FEB9B9"/>
<path d="M136.841 94.7865C136.841 94.7865 139.485 113.281 148.588 117.685C157.692 122.089 136.841 130.319 136.841 130.319L108.358 119.742C108.358 119.742 124.511 114.456 121.279 98.8952L136.841 94.7865Z" fill="#FEB9B9"/>
<path d="M106.3 206.053L105.656 209.567L105.132 212.274L104.224 217.207L95.4131 223.368C95.4131 223.368 94.6189 222.694 93.3088 221.624C89.698 218.651 82.1094 212.599 76.5281 209.35C75.0953 208.436 73.5443 207.721 71.918 207.227L106.3 206.053Z" fill="#FEB9B9"/>
<path d="M98.6787 210.386C98.6787 210.386 107.898 210.451 108.453 206.053C109.008 201.654 103.429 199.297 98.6787 199.002C93.9288 198.707 65.0692 200.901 65.0692 200.901C65.0692 200.901 60.975 209.208 79.1278 210.385L98.6787 210.386Z" fill="#2F2E41"/>
<path d="M163.321 279.483C162.918 279.284 162.514 279.08 162.117 278.881L161.034 277.516L146.825 259.503V259.816C146.729 262.824 145.706 286.661 137.726 288.863C129.21 291.209 118.937 291.799 114.254 275.946C109.571 260.093 101.015 225.45 92.228 223.393L105.299 212.678C105.299 212.678 113.953 222.798 117.479 232.484C117.347 231.882 111.371 203.966 116.276 199.027H159.158C159.158 199.027 165.778 217.876 170.315 227.214C173.848 234.464 179.15 251.604 182.564 263.204C185.943 274.658 174.069 284.771 163.321 279.483Z" fill="#3F3D56"/>
<path opacity="0.1" d="M162.099 204.29C155.479 208.207 126.418 206.612 116.964 205.975L114.388 205.788C114.111 205.788 114.43 205.632 114.43 205.632L114.695 202.966L121.742 185.061L159.475 163.186C158.711 165.49 158.458 169.016 158.519 173.053C158.693 186.024 162.099 204.29 162.099 204.29Z" fill="black"/>
<path d="M162.099 203.406C155.479 207.323 126.418 205.728 116.964 205.091L114.388 204.91L113.96 204.874L114.43 204.753L116.753 204.152L121.742 184.19L159.475 162.32C158.711 164.624 158.458 168.15 158.518 172.187C158.693 185.146 162.099 203.406 162.099 203.406Z" fill="#EFEFEF"/>
<path opacity="0.1" d="M158.494 172.175C150.821 173.943 133.935 179.133 127.447 191.668C123.12 200.012 119.479 203.592 116.939 205.09L114.363 204.909C114.38 204.858 114.394 204.806 114.405 204.753L116.728 204.151L121.717 184.189L159.45 162.32C158.695 164.612 158.434 168.138 158.494 172.175Z" fill="black"/>
<path opacity="0.1" d="M27.8963 178.456L36.707 183.739C35.8221 183.962 34.6912 184.818 33.4334 186.055C32.6991 183.913 28.0917 180.923 25.9949 179.648C27.1318 178.883 27.8963 178.456 27.8963 178.456Z" fill="black"/>
<path opacity="0.1" d="M112.793 205.253C112.697 205.303 112.587 205.322 112.479 205.307C112.371 205.292 112.271 205.244 112.192 205.169C112.387 205.226 112.59 205.254 112.793 205.253Z" fill="black"/>
<path d="M132.731 116.512C132.731 116.512 124.8 117.39 119.221 111.518C119.221 111.518 95.7498 118.274 87.8008 133.538C79.8518 148.801 25.8142 178.751 25.8142 178.751C25.8142 178.751 35.2146 184.033 34.3297 186.674L69.8665 166.122C69.8665 166.122 82.5044 157.026 86.0132 154.968C89.522 152.911 108.924 140.289 113.034 174.636C117.145 208.984 113.034 204.874 113.034 204.874C113.034 204.874 118.908 206.932 127.424 190.489C135.939 174.046 162.365 170.232 162.365 170.232L163.833 152.916C163.833 152.916 169.075 141.437 165.037 136.672C163.813 135.262 163 133.543 162.684 131.703C162.016 127.305 162.684 119.977 172.036 113.888C186.425 104.491 192.004 96.8622 192.004 96.8622C192.004 96.8622 192.298 91.2792 183.488 88.6377C174.678 85.9962 138.852 71.6115 138.852 71.6115L137.648 76.6049L165.915 96.5494C165.915 96.5494 151.821 107.98 140.639 107.703C140.639 107.703 142.715 116.217 132.731 116.512Z" fill="#FF7C50"/>
<path opacity="0.1" d="M138.171 102.836C137.477 100.483 136.934 98.0875 136.547 95.6647L120.984 99.775C121.67 102.745 121.547 105.845 120.629 108.752C123.811 109.6 127.172 109.492 130.293 108.44C133.413 107.387 136.154 105.438 138.171 102.836Z" fill="black"/>
<path d="M125.245 108.438C134.488 108.438 141.981 100.947 141.981 91.7064C141.981 82.4658 134.488 74.9747 125.245 74.9747C116.002 74.9747 108.509 82.4658 108.509 91.7064C108.509 100.947 116.002 108.438 125.245 108.438Z" fill="#FEB9B9"/>
<path opacity="0.1" d="M143.449 226.454C143.449 226.454 153.139 245.538 150.202 251.404L143.449 226.454Z" fill="black"/>
<path d="M134.145 53.0631C138.791 53.5928 143.203 55.5838 147.777 56.6729C148.92 57.0281 150.137 57.0737 151.303 56.805C153.078 56.2575 154.523 54.3987 156.364 54.4526C157.497 54.4888 158.501 55.259 159.433 55.9986C160.929 57.1432 162.337 58.3982 163.646 59.7529C166.799 63.1761 168.755 67.7849 171.632 71.509C174.508 75.2332 178.61 79.6003 182.697 77.8925C179.917 88.7219 171.246 95.4964 161.395 96.1707C157.466 96.4404 153.439 95.6232 149.636 96.7721C148.689 97.1604 147.688 97.4037 146.668 97.4939C144.478 97.4939 142.714 95.4845 141.348 93.5291C138.146 88.9328 135.613 83.7166 132.008 79.5232C130.804 78.1336 129.414 76.8158 127.729 76.5634C126.044 76.3109 124.498 77.1168 122.999 77.893C120.526 79.1747 117.999 80.4979 116.079 82.7063C114.159 84.9146 112.949 88.1749 113.744 91.1293C114.171 92.7297 115.146 94.1738 115.164 95.846C115.2 98.5172 112.841 100.467 112.377 103.066C112.273 104.157 112.235 105.254 112.263 106.351C112.058 109.911 109.727 112.824 107.299 115.068C106.348 115.934 105.302 116.873 105.024 118.215C104.837 119.135 105.024 120.103 104.904 121.036C104.549 123.347 102.244 124.52 100.204 124.821C97.8199 125.174 95.3853 124.885 93.1503 123.985C96.003 122.636 97.7604 118.799 97.0983 115.363C96.1897 110.598 91.3993 107.175 91.8105 102.326C92.0357 100.838 92.482 99.3924 93.1346 98.0365C94.1785 95.4162 94.9372 92.6912 95.3976 89.9086C95.7585 87.7606 95.9334 85.4805 95.2589 83.4291C94.6573 81.5638 93.3995 80.0782 92.3339 78.5015C90.8898 76.3566 89.7497 74.0221 88.9459 71.5646C88.6546 70.8356 88.5436 70.0472 88.6222 69.2661C88.8635 68.3437 89.3774 67.5154 90.0968 66.8894C92.7148 64.1384 95.513 61.2822 99.0219 60.4941C100.696 60.2162 102.399 60.1515 104.089 60.3015C107.029 60.3937 109.972 60.2689 112.893 59.9282C115.3 59.6456 119.368 59.6817 121.409 58.1234C123.31 56.6669 124.382 54.8383 126.722 53.9121C129.093 53.0337 131.641 52.7426 134.149 53.0636L134.145 53.0631Z" fill="#2F2E41"/>
<path d="M445.127 402.189C458.535 402.189 469.405 400.352 469.405 398.085C469.405 395.818 458.535 393.98 445.127 393.98C431.718 393.98 420.849 395.818 420.849 398.085C420.849 400.352 431.718 402.189 445.127 402.189Z" fill="#FF7C50"/>
<path d="M455.167 391.373C456.274 390.468 457.08 389.25 457.48 387.878C457.782 386.496 457.19 384.857 455.861 384.323C454.376 383.755 452.786 384.788 451.586 385.825C450.387 386.863 449.002 388.053 447.426 387.829C448.237 387.096 448.845 386.165 449.189 385.128C449.534 384.09 449.603 382.981 449.391 381.908C449.32 381.464 449.13 381.046 448.841 380.701C448.02 379.819 446.521 380.194 445.539 380.894C442.399 383.097 441.524 387.367 441.505 391.197C441.185 389.815 441.457 388.372 441.445 386.972C441.433 385.571 441.053 383.951 439.851 383.211C439.11 382.814 438.277 382.618 437.436 382.644C436.023 382.59 434.453 382.735 433.487 383.766C432.28 385.046 432.606 387.195 433.644 388.595C434.683 389.996 436.271 390.895 437.732 391.867C438.9 392.564 439.896 393.515 440.646 394.65C440.736 394.808 440.808 394.976 440.862 395.151H449.683C451.672 394.144 453.516 392.874 455.166 391.375L455.167 391.373Z" fill="#FF7C50"/>
<path d="M115.043 404C123.892 404 131.065 402.788 131.065 401.292C131.065 399.795 123.892 398.583 115.043 398.583C106.195 398.583 99.0212 399.795 99.0212 401.292C99.0212 402.788 106.195 404 115.043 404Z" fill="#EFEFEF"/>
<path d="M121.67 396.862C122.4 396.265 122.932 395.461 123.196 394.555C123.312 394.101 123.269 393.621 123.075 393.194C122.881 392.767 122.547 392.42 122.128 392.209C121.147 391.835 120.099 392.516 119.307 393.201C118.514 393.886 117.601 394.671 116.562 394.524C117.097 394.04 117.497 393.425 117.724 392.74C117.951 392.056 117.997 391.324 117.856 390.616C117.81 390.323 117.684 390.047 117.494 389.819C116.954 389.238 115.964 389.485 115.315 389.947C113.243 391.403 112.665 394.217 112.653 396.746C112.442 395.834 112.621 394.882 112.613 393.958C112.605 393.034 112.354 391.967 111.561 391.477C111.072 391.214 110.522 391.085 109.967 391.103C109.034 391.067 107.999 391.162 107.361 391.844C106.564 392.688 106.779 394.107 107.464 395.031C108.15 395.955 109.197 396.549 110.162 397.188C110.933 397.647 111.591 398.274 112.087 399.022C112.147 399.127 112.195 399.238 112.23 399.353H118.052C119.364 398.688 120.581 397.849 121.67 396.859V396.862Z" fill="#EFEFEF"/>
<path d="M24.432 404C33.2807 404 40.454 402.788 40.454 401.292C40.454 399.795 33.2807 398.583 24.432 398.583C15.5832 398.583 8.40991 399.795 8.40991 401.292C8.40991 402.788 15.5832 404 24.432 404Z" fill="#EFEFEF"/>
<path d="M31.0583 396.862C31.7884 396.265 32.3205 395.461 32.5842 394.555C32.7004 394.101 32.6579 393.621 32.4636 393.194C32.2695 392.767 31.9352 392.42 31.5164 392.209C30.536 391.835 29.4881 392.516 28.6955 393.201C27.9029 393.886 26.9899 394.671 25.9502 394.524C26.4854 394.04 26.886 393.425 27.1129 392.74C27.3399 392.056 27.3854 391.324 27.2451 390.616C27.1985 390.323 27.0732 390.047 26.8825 389.819C26.343 389.238 25.3523 389.485 24.7032 389.947C22.6313 391.403 22.0534 394.217 22.0415 396.746C21.8305 395.834 22.0097 394.882 22.0016 393.958C21.9935 393.034 21.7426 391.967 20.9494 391.477C20.4602 391.214 19.9105 391.085 19.3555 391.103C18.4231 391.067 17.3872 391.162 16.7494 391.844C15.9525 392.688 16.1677 394.107 16.853 395.031C17.5382 395.955 18.5861 396.549 19.5508 397.188C20.322 397.647 20.9798 398.274 21.4755 399.022C21.5352 399.127 21.5833 399.238 21.619 399.353H27.4405C28.7531 398.688 29.97 397.849 31.0583 396.859V396.862Z" fill="#EFEFEF"/>
<path d="M487 402.453H0V403.436H487V402.453Z" fill="#2F2E41"/>
<path d="M463.228 27.2536C463.228 27.2536 412.389 24.187 418.379 59.8004C418.379 59.8004 417.171 66.096 422.895 68.9511C422.895 68.9511 422.986 66.3134 428.112 67.2126C429.937 67.515 431.791 67.604 433.636 67.478C436.126 67.3143 438.495 66.3461 440.386 64.7194C440.386 64.7194 454.678 58.816 460.233 35.4684C460.233 35.4684 464.344 30.3741 464.181 29.0639L455.602 32.7276C455.602 32.7276 458.536 38.9147 456.206 44.0554C456.206 44.0554 455.928 32.9488 454.28 33.1904C453.948 33.239 449.824 35.333 449.824 35.333C449.824 35.333 454.866 46.1073 451.062 53.9429C451.062 53.9429 452.505 40.6635 448.248 36.1119L442.21 39.637C442.21 39.637 448.103 50.7679 444.106 59.8522C444.106 59.8522 445.131 45.9207 440.936 40.4941L435.466 44.7615C435.466 44.7615 441.002 55.7289 437.627 63.2635C437.627 63.2635 437.187 47.0502 434.282 45.8252C434.282 45.8252 429.494 50.0505 428.763 51.7766C428.763 51.7766 432.555 59.7444 430.2 63.9453C430.2 63.9453 428.757 53.1408 427.574 53.0804C427.574 53.0804 422.804 60.239 422.308 65.1526C422.308 65.1526 422.514 57.8548 426.42 52.4045C426.42 52.4045 421.807 53.1953 419.114 56.1804C419.114 56.1804 419.857 51.1223 427.597 50.6756C427.597 50.6756 431.54 45.2432 432.591 44.9174C432.591 44.9174 424.898 44.2701 420.231 46.342C420.231 46.342 424.337 41.5676 434.004 43.7404L439.407 39.3279C439.407 39.3279 429.276 37.9454 424.977 39.473C424.977 39.473 429.922 35.2477 440.863 38.3262L446.744 34.813C446.744 34.813 438.104 32.9536 432.96 33.6058C432.96 33.6058 438.394 30.6783 448.471 33.8533L452.697 31.9654C452.697 31.9654 446.37 30.722 444.516 30.523C442.662 30.3239 442.566 29.8169 442.566 29.8169C446.574 29.1487 450.69 29.6064 454.454 31.139C454.454 31.139 463.379 27.8151 463.228 27.2536Z" fill="#FF7C50"/>
<path d="M393.571 8.39929C393.571 8.39929 370.627 7.01677 373.308 23.1092C373.308 23.1092 372.768 25.9525 375.349 27.2439C375.349 27.2439 375.391 26.0367 377.709 26.4531C378.533 26.5917 379.37 26.6322 380.203 26.5739C381.329 26.4994 382.4 26.0584 383.252 25.3181C383.252 25.3181 389.712 22.6502 392.224 12.0992C392.224 12.0992 394.077 9.79963 394.004 9.20788L390.128 10.8617C390.128 10.8617 391.451 13.6565 390.412 15.9803C390.412 15.9803 390.285 10.9637 389.543 11.0791C389.391 11.0791 387.526 12.0501 387.526 12.0501C387.526 12.0501 389.808 16.921 388.087 20.4585C388.087 20.4585 388.739 14.4586 386.813 12.4002L384.084 14.0184C384.084 14.0184 386.747 19.0463 384.942 23.1513C384.942 23.1513 385.407 16.8558 383.511 14.4052L381.041 16.3368C381.041 16.3368 383.541 21.2925 382.019 24.6978C382.019 24.6978 381.814 17.3698 380.504 16.8148C380.504 16.8148 378.342 18.7221 378.01 19.507C378.01 19.507 379.725 23.1286 378.662 25.0058C378.662 25.0058 378.01 20.1225 377.455 20.0971C377.455 20.0971 375.299 23.3336 375.076 25.5296C375.184 23.481 375.825 21.4961 376.935 19.7713C375.692 20.0069 374.544 20.6006 373.633 21.4796C373.633 21.4796 373.971 19.192 377.467 18.9929C377.467 18.9929 379.278 16.5364 379.725 16.3854C379.725 16.3854 376.248 16.0957 374.14 17.0327C374.14 17.0327 375.993 14.8777 380.359 15.8557L382.774 13.8636C382.774 13.8636 378.193 13.2541 376.251 13.9262C376.251 13.9262 378.485 12.0188 383.43 13.4072L386.087 11.8197C386.087 11.8197 382.18 10.9809 379.856 11.2803C379.856 11.2803 382.313 9.95821 386.866 11.3882L388.768 10.537C388.768 10.537 385.908 9.97547 385.066 9.88485C384.225 9.79423 384.185 9.56497 384.185 9.56497C385.997 9.26354 387.858 9.47254 389.558 10.1686C389.558 10.1686 393.642 8.65066 393.571 8.39929Z" fill="#3F3D56"/>
<path d="M39.7514 254.07C39.7514 254.07 16.8078 252.688 19.4883 268.78C19.4883 268.78 18.9488 271.624 21.529 272.915C21.529 272.915 21.5711 271.708 23.8896 272.124C24.7131 272.263 25.55 272.303 26.383 272.245C27.5092 272.17 28.5801 271.729 29.4321 270.989C29.4321 270.989 35.8924 268.321 38.4041 257.77C38.4041 257.77 40.2576 255.471 40.1847 254.879L36.3084 256.533C36.3084 256.533 37.6309 259.327 36.5922 261.651C36.5922 261.651 36.4654 256.635 35.723 256.75C35.5719 256.75 33.7061 257.721 33.7061 257.721C33.7061 257.721 35.9885 262.592 34.2678 266.13C34.2678 266.13 34.9196 260.13 32.9938 258.071L30.2647 259.689C30.2647 259.689 32.9275 264.717 31.122 268.822C31.122 268.822 31.5872 262.527 29.6911 260.076L27.2215 262.008C27.2215 262.008 29.7213 266.963 28.1997 270.369C28.1997 270.369 27.9947 263.041 26.6841 262.486C26.6841 262.486 24.5226 264.393 24.1902 265.178C24.1902 265.178 25.9049 268.8 24.8425 270.677C24.8425 270.677 24.1902 265.793 23.635 265.768C23.635 265.768 21.4794 269.005 21.256 271.201C21.3639 269.152 22.005 267.167 23.1159 265.442C21.872 265.678 20.724 266.272 19.8132 267.151C19.8132 267.151 20.1515 264.863 23.6474 264.664C23.6474 264.664 25.4587 262.207 25.9055 262.056C25.9055 262.056 22.4279 261.767 20.3204 262.704C20.3204 262.704 22.1738 260.549 26.5395 261.527L28.9546 259.535C28.9546 259.535 24.3736 258.925 22.4312 259.597C22.4312 259.597 24.665 257.69 29.6102 259.078L32.267 257.491C32.267 257.491 28.3605 256.652 26.0361 256.951C26.0361 256.951 28.4932 255.629 33.0462 257.059L34.9482 256.208C34.9482 256.208 32.0884 255.646 31.2467 255.556C30.405 255.465 30.365 255.236 30.365 255.236C32.1775 254.935 34.0382 255.144 35.7386 255.84C35.7386 255.84 39.8221 254.322 39.7514 254.07Z" fill="#3F3D56"/>
</g>
<defs>
<linearGradient id="paint0_linear" x1="112.962" y1="207.244" x2="112.962" y2="207.088" gradientUnits="userSpaceOnUse">
<stop stop-color="#808080" stop-opacity="0.251"/>
<stop offset="0.54" stop-color="#808080" stop-opacity="0.122"/>
<stop offset="1" stop-color="#808080" stop-opacity="0.102"/>
</linearGradient>
<clipPath id="clip0">
<rect width="487" height="404" fill="white"/>
</clipPath>
</defs>
</svg>
