<svg width="608" height="467" fill="none" xmlns="http://www.w3.org/2000/svg"><g clip-path="url(#clip0)"><path d="M139.998 323.191l47.073-74-105.423-67.013-54.442 85.586 87.197 55.427h25.595z" fill="#F0F0F0"/><path d="M206.705 346.276H90.102v-23.463h116.603v23.463zm-115.089-1.513H205.19v-20.436H91.616v20.436z" fill="#3F3D56"/><path d="M192.319 342.113a7.57 7.57 0 100-15.137 7.57 7.57 0 100 15.137zm-21.201 0a7.57 7.57 0 100-15.137 7.57 7.57 0 100 15.137zm-21.2 0a7.57 7.57 0 100-15.137 7.57 7.57 0 100 15.137zm-21.201 0a7.57 7.57 0 100-15.137 7.57 7.57 0 100 15.137zm-21.2 0a7.57 7.57 0 100-15.137 7.57 7.57 0 100 15.137z" fill="#ED6A4C"/><path d="M345.265 85.528V28.005h28.772V0H233.206v140.781h120.388v-13.764a19.534 19.534 0 0112.066-18.052 19.567 19.567 0 017.48-1.487h.897v-21.95h-28.772z" fill="#F0F0F0"/><path d="M501.24 363.306h-93.887v19.679h93.887v-19.679z" fill="#ED6A4C"/><path d="M521.684 266.425H383.88v18.165h137.804v-18.165z" fill="#F0F0F0"/><path d="M589.071 465.486H0V467h589.071v-1.514z" fill="#3F3D56"/><path d="M545.296 467H373.14a20.329 20.329 0 01-14.35-5.951 20.316 20.316 0 01-5.953-14.345V127.017a20.316 20.316 0 015.953-14.345 20.333 20.333 0 0114.35-5.951h172.156a20.333 20.333 0 0114.35 5.951 20.316 20.316 0 015.953 14.345v319.687a20.316 20.316 0 01-5.953 14.345 20.33 20.33 0 01-14.35 5.951zM373.14 108.235a18.812 18.812 0 00-13.279 5.507 18.8 18.8 0 00-5.51 13.275v319.687a18.808 18.808 0 0018.789 18.782h172.156a18.81 18.81 0 0018.789-18.782V127.017a18.8 18.8 0 00-5.51-13.275 18.814 18.814 0 00-13.279-5.507H373.14z" fill="#3F3D56"/><path d="M438.775 121.859a4.543 4.543 0 01-3.213-7.753 4.545 4.545 0 017.756 3.212 4.549 4.549 0 01-4.543 4.541zm0-7.569a3.03 3.03 0 103.028 3.028 3.029 3.029 0 00-3.028-3.028zm44.672 2.271h-33.315v1.514h33.315v-1.514z" fill="#3F3D56"/><path d="M551.97 128.671v60.551a60.587 60.587 0 01-42.831-17.736 60.544 60.544 0 01-17.742-42.815h60.573z" fill="#ED6A4C"/><path d="M552.727 446.564H365.709v-318.65h187.018v318.65zm-185.504-1.514h183.99V129.428h-183.99V445.05z" fill="#3F3D56"/><path opacity=".1" d="M508.055 185.438c11.29 0 20.443-9.15 20.443-20.436 0-11.287-9.153-20.436-20.443-20.436-11.291 0-20.444 9.149-20.444 20.436 0 11.286 9.153 20.436 20.444 20.436z" fill="#000"/><path d="M505.026 187.708c11.291 0 20.443-9.149 20.443-20.436 0-11.286-9.152-20.436-20.443-20.436-11.29 0-20.443 9.15-20.443 20.436 0 11.287 9.153 20.436 20.443 20.436z" fill="#ED6A4C"/><path d="M402.81 140.781h-28.773v10.597h28.773v-10.597zm15.9 100.666h-28.772v10.597h28.772v-10.597zm110.545 39.359H389.938v-19.68h139.317v19.68zm-137.803-1.514h136.289V262.64H391.452v16.652z" fill="#3F3D56"/><path d="M521.684 323.948H383.88v18.165h137.804v-18.165z" fill="#F0F0F0"/><path d="M418.71 298.971h-28.772v10.596h28.772v-10.596zm110.545 39.358H389.938V318.65h139.317v19.679zm-137.803-1.514h136.289v-16.651H391.452v16.651zm115.846 41.629h-95.402v-21.193h95.402v21.193zm-93.888-1.514h92.373v-18.165H413.41v18.165z" fill="#3F3D56"/><path d="M525.469 273.237a7.565 7.565 0 01-5.009 7.122 7.576 7.576 0 01-8.4-2.301l-.007-.008a7.563 7.563 0 012.451-11.581 7.568 7.568 0 016.571-.101 7.566 7.566 0 014.175 5.075v.003l.002.002.002.002h.003c.14.585.211 1.185.212 1.787z" fill="#ED6A4C"/><path opacity=".1" d="M525.469 273.237a7.57 7.57 0 01-13.409 4.821l-.007-.008a7.57 7.57 0 0113.197-6.607v.003l.002.002.003.002h.002c.14.586.211 1.185.212 1.787z" fill="#000"/><path d="M520.927 285.347a7.57 7.57 0 007.571-7.569 7.57 7.57 0 00-7.571-7.569 7.57 7.57 0 00-7.572 7.569 7.57 7.57 0 007.572 7.569zm4.542 45.413a7.562 7.562 0 01-1.378 4.353 7.569 7.569 0 01-12.031.469l-.007-.008a7.567 7.567 0 019.022-11.682 7.566 7.566 0 014.175 5.074v.003l.002.003.002.001.003.001c.14.585.211 1.185.212 1.786z" fill="#ED6A4C"/><path opacity=".1" d="M525.469 330.76a7.57 7.57 0 01-13.409 4.821l-.007-.007a7.566 7.566 0 014.797-8.908 7.569 7.569 0 018.4 2.3v.003l.002.003.003.001.002.001c.14.585.211 1.184.212 1.786z" fill="#000"/><path d="M520.927 342.87a7.57 7.57 0 100-15.137 7.57 7.57 0 100 15.137z" fill="#ED6A4C"/><path d="M393.723 36.33h-39.372v39.36h39.372V36.33z" fill="#F0F0F0"/><path d="M508.055 65.092a9.088 9.088 0 01-8.395-5.606 9.083 9.083 0 016.622-12.384 9.09 9.09 0 019.327 3.862 9.076 9.076 0 011.532 5.046 9.095 9.095 0 01-9.086 9.083zm0-16.651a7.573 7.573 0 00-6.996 4.672 7.566 7.566 0 005.518 10.32 7.576 7.576 0 007.773-3.218 7.567 7.567 0 001.276-4.205 7.576 7.576 0 00-7.571-7.57zM308.164 191.493h-19.686v-19.679h19.686v19.679zm-18.171-1.514h16.657v-16.652h-16.657v16.652zM608 338.329h-19.686V318.65H608v19.679zm-18.172-1.514h16.658v-16.651h-16.658v16.651z" fill="#3F3D56"/><path d="M219.579 206.378l3.378 1.819 11.495 6.193 18.558 9.996 10.815-20.059a16.274 16.274 0 001.274-12.419 16.301 16.301 0 00-7.894-9.674 21.655 21.655 0 00-25.275 3.428l-.006.006a21.674 21.674 0 00-4.07 5.355l-8.275 15.355z" fill="#2F2E41"/><path d="M270.231 410.943l-2.267 24.931-8.503 1.133-5.668-28.331 16.438 2.267z" fill="#FFB8B8"/><path d="M257.194 437.007s10.769-5.666 13.037-1.133c0 0-1.701 13.599 5.101 15.299 6.802 1.7 9.636 13.599 0 14.732-9.636 1.134-15.871-2.266-19.272-2.266-3.401 0 0-11.899 0-11.899l1.134-14.733z" fill="#2F2E41"/><path d="M201.644 410.943l2.268 24.931 8.502 1.133 5.668-28.331-16.438 2.267z" fill="#FFB8B8"/><path d="M214.681 437.007s-10.77-5.666-13.037-1.133c0 0 1.7 13.599-5.102 15.299-6.802 1.7-9.636 13.599 0 14.732 9.637 1.134 15.872-2.266 19.273-2.266s0-11.9 0-11.9l-1.134-14.732z" fill="#2F2E41"/><path d="M248.124 210.922c8.139 0 14.738-6.595 14.738-14.732 0-8.136-6.599-14.732-14.738-14.732s-14.738 6.596-14.738 14.732c0 8.137 6.599 14.732 14.738 14.732z" fill="#FFB8B8"/><path d="M201.077 225.088l11.904 18.699 14.17-1.133 23.241 1.7s2.193-4.386 3.984-8.653a33.532 33.532 0 002.251-6.646c.567-3.967-7.369-7.933-7.369-7.933s-.312-.057-.833-.182a32.28 32.28 0 01-2.925-.833c-2.636-.895-5.805-2.413-6.445-4.652-1.134-3.966 7.369-9.632 7.369-9.632l-10.203-9.633s-9.064 12.585-20.072 15.452c-.638.169-1.285.301-1.938.397l-.097.017c-11.903 1.7-13.037 13.032-13.037 13.032z" fill="#FFB8B8"/><path d="M207.312 219.988l-6.235 5.1s-5.101 24.365-3.401 31.165c1.701 6.799-.567 13.032-.567 14.165 0 1.134-5.101 43.631-5.101 43.631s-10.203 22.665.567 20.398c10.77-2.266 6.802-24.931 6.802-24.931l13.037-39.664v-33.431l-5.102-16.433zm44.78 4.533l4.535 3.4 2.267 47.597 17.005 40.797s12.47 19.832 4.535 20.399c-7.936.567-13.037-20.399-13.037-20.399l-15.305-39.097-2.267-37.964 2.267-14.733z" fill="#FFB8B8"/><path d="M223.75 227.921s11.337 7.933 29.476 5.1c0 0 5.101 10.199 2.267 15.866-2.834 5.666 3.401 19.265 4.535 20.965 1.133 1.7 14.17 36.831 18.705 74.795 4.535 37.964 17.005 64.029 6.235 67.428-10.77 3.4-32.876 7.367-35.143 3.967-2.268-3.4-5.669-87.828-5.669-87.828l-6.235 32.298s8.503 54.963 2.268 56.097c-6.236 1.133-45.347-2.267-44.213-9.067 1.133-6.799 12.47-42.497 12.47-42.497s-.567-71.395 10.77-84.994c0 0 4.534-7.366-1.701-16.999-6.235-9.632-5.668-24.931-5.668-24.931s4.535 0 11.903-10.2z" fill="#2F2E41"/><path d="M214.211 212.038l9.54 20.983 2.267-1.133-9.869-20.246-1.938.396zm31.289 8.069l7.159 15.747 1.718-.153-.584-2.68-5.368-12.081a32.373 32.373 0 01-2.925-.833zm-22.543-11.91a9.327 9.327 0 008.006 6.514 9.33 9.33 0 009.112-4.848c-7.17-9.372-1.02-15.259 10.628-19.713a9.31 9.31 0 00-1.003-10.336 21.73 21.73 0 00-17.77 5.848l-.006.006-8.276 15.344a9.283 9.283 0 00-.691 7.185z" fill="#2F2E41"/><path d="M239.338 201.29c1.096 0 1.984-1.522 1.984-3.4s-.888-3.4-1.984-3.4c-1.095 0-1.984 1.522-1.984 3.4s.889 3.4 1.984 3.4z" fill="#FFB8B8"/><path d="M245.25 192.343l17.039 7.717 3.124-6.89a16.314 16.314 0 00-3.288-6.873l-11.728-5.31-5.147 11.356z" fill="#2F2E41"/><path d="M286.207 344.384a7.57 7.57 0 100-15.138 7.57 7.57 0 00-7.572 7.569 7.57 7.57 0 007.572 7.569z" fill="#ED6A4C"/><path d="M43.125 389.379a4.948 4.948 0 10.001-9.896 4.948 4.948 0 000 9.896z" fill="#FF6584"/><path d="M68.126 410.213H66.61v56.321h1.515v-56.321z" fill="#3F3D56"/><path d="M67.369 418.177c4.4 0 7.967-3.566 7.967-7.964a7.966 7.966 0 00-7.967-7.965 7.966 7.966 0 00-7.968 7.965 7.966 7.966 0 007.968 7.964zm-.001 26.747s-1.138-24.471-24.471-21.627l24.471 21.627z" fill="#3F3D56"/></g><defs><clipPath id="clip0"><path fill="#fff" d="M0 0h608v467H0z"/></clipPath></defs></svg>