<svg data-name="Layer 1" xmlns="http://www.w3.org/2000/svg" width="781.677" height="642.211"><path d="M731.445 642.211v-72.34s28.191 51.286 0 72.34z" fill="#f1f1f1"/><path d="M733.186 642.198l-53.29-48.921s56.846 13.916 53.29 48.921z" fill="#f1f1f1"/><circle data-name="Ellipse 44" cx="238.427" cy="11.017" r="11.017" fill="#f1f1f1"/><circle data-name="Ellipse 44" cx="210.427" cy="39.017" r="11.017" fill="#f1f1f1"/><circle data-name="Ellipse 44" cx="203.427" cy="536.017" r="11.017" fill="#f1f1f1"/><path fill="#9f616a" d="M580.071 629.149h-11.983l-.686-45.504 12.669-.717v46.221z"/><path d="M583.139 640.776h-38.661v-.5a15.068 15.068 0 0115.05-15.051h23.61z" fill="#2f2e41"/><path fill="#9f616a" d="M648.668 615.343l-10.985 4.789-18.813-41.439 11.328-5.719 18.47 42.369z"/><path d="M620.687 640.225l-.2-.458a15.05 15.05 0 017.782-19.812l21.643-9.435 6.215 14.256z" fill="#2f2e41"/><circle cx="601.365" cy="243.997" r="25.965" fill="#9f616a"/><path fill="#2f2e41" d="M647.842 593.621l-33.56-81.983 16.3-76.71-30.923-1.678-17.02 85.819 42.909 85.099 22.294-10.547z"/><path fill="#2f2e41" d="M611.165 419.586l-15.821 98.044-4.757 93.972-27.311-.24-1.013-179.79 48.902-11.986z"/><path fill="#cbcbcb" d="M632.869 425.177l-1.556 14.201-77.42 3.464 5.242-21.353 73.734 3.688z"/><path d="M559.252 451.985a9 9 0 011.535-12.708 9.256 9.256 0 011.25-.816l30.366-114.11 18 7.91-35.672 110.27a9.016 9.016 0 01-2.654 10.884 9.178 9.178 0 01-12.825-1.43z" fill="#9f616a"/><path d="M578.445 294.954l3.58-7.397s17.635-15.245 36.235-6.107l2.867 8.54 15.17 24.497-3.428 113.148s-63.289-4.812-78.976.922l6.896-89.66z" fill="#3f3d56"/><path d="M581.739 438.553l-26.723-7.475 24.713-77.235 2.238-43.122a15.592 15.592 0 015.821-11.25 19.165 19.165 0 0114.8-4.08c8.731 1.196 15.154 7.873 15.272 15.877v.04l-.005.038-8.582 60.442-2.752 9.839z" fill="#cbcbcb"/><path d="M613.134 264.35l5.91 1.493 8.96-9.523s16.463-38.191-19.926-44.035-28.441 8.91-33.307 18.162l14.87 3.866 13.382 13.68s8.732-6.396 11.3-.595-1.189 16.951-1.189 16.951z" fill="#2f2e41"/><path d="M406.094 485.848H0V79.755h406.094z" fill="#fff"/><path d="M406.094 485.848H0V79.755h406.094zM6 479.848h394.094V85.755H6z" fill="#e5e5e5"/><path fill="#ed6a4c" d="M83.731 254.329h260.441v9.194H83.731zm0 23.904h260.441v9.194H83.731zm0 23.903h260.441v9.194H83.731z"/><circle cx="67.922" cy="260.273" r="6" fill="#ed6a4c"/><path fill="#e5e5e5" d="M83.731 151.329h260.441v9.194H83.731zm0 23.904h260.441v9.194H83.731zm0 23.903h260.441v9.194H83.731z"/><circle cx="67.922" cy="156.273" r="6" fill="#e5e5e5"/><path fill="#e5e5e5" d="M83.731 358.329h260.441v9.194H83.731zm0 23.904h260.441v9.194H83.731zm0 23.903h260.441v9.194H83.731z"/><circle cx="67.922" cy="363.273" r="6" fill="#e5e5e5"/><path d="M780.677 641.954h-299a1 1 0 010-2h299a1 1 0 010 2z" fill="#cbcbcb"/></svg>