<svg width="487" height="404" fill="none" xmlns="http://www.w3.org/2000/svg"><g clip-path="url(#clip0)"><path d="M347.915 91.463h-3.46c-.683 0-1.236.553-1.236 1.235V139.1c0 .682.553 1.235 1.236 1.235h3.46c.683 0 1.236-.553 1.236-1.235V92.698c0-.682-.553-1.235-1.236-1.235z" fill="#3F3D56"/><path d="M325.381 0H169.014c-11.618 0-21.037 9.416-21.037 21.032v361.127c0 11.616 9.419 21.032 21.037 21.032h156.367c11.619 0 21.038-9.416 21.038-21.032V21.032C346.419 9.416 337 0 325.381 0z" fill="#3F3D56"/><path d="M318.799 10.502h-22.763v2.737a12.96 12.96 0 01-3.803 9.175 12.98 12.98 0 01-9.179 3.797H210.66a12.979 12.979 0 01-11.994-8.006 12.978 12.978 0 01-.988-4.965v-2.738h-21.313a15.756 15.756 0 00-15.761 15.756V376.96a15.758 15.758 0 0015.761 15.755h142.434a15.758 15.758 0 0015.761-15.755V26.285a15.763 15.763 0 00-15.761-15.783z" fill="#fff"/><path d="M253.679 12.04h-23.534a2.088 2.088 0 00-2.088 2.088v1.448c0 1.153.935 2.087 2.088 2.087h23.534a2.087 2.087 0 002.088-2.087v-1.448a2.087 2.087 0 00-2.088-2.087zm9.473 6.005a3.193 3.193 0 10.001-6.387 3.193 3.193 0 00-.001 6.387z" fill="#E6E8EC"/><path d="M248.41 244.074c20.732 0 37.539-16.802 37.539-37.529 0-20.726-16.807-37.529-37.539-37.529-20.733 0-37.54 16.803-37.54 37.529 0 20.727 16.807 37.529 37.54 37.529z" fill="#fff"/><path d="M297.785 201.305a50.164 50.164 0 01-30.974 46.34 50.186 50.186 0 01-54.678-10.875 50.156 50.156 0 01-13.731-25.683 50.156 50.156 0 0121.336-51.49 50.19 50.19 0 0147.076-4.634 50.178 50.178 0 0127.152 27.147 50.137 50.137 0 013.819 19.195zm-55.972 26.55l37.218-37.207a3.227 3.227 0 000-4.578l-4.579-4.545a3.232 3.232 0 00-2.286-.949 3.224 3.224 0 00-2.287.949l-30.355 30.347-14.173-14.203a3.249 3.249 0 00-4.58 0l-4.579 4.605a3.249 3.249 0 000 4.578l21.043 21.03a3.24 3.24 0 002.29.95 3.234 3.234 0 002.29-.95l-.002-.027z" fill="#FF7C50"/><path d="M154.19 79.487h-.52c-.682 0-1.235.553-1.235 1.235v11.993c0 .682.553 1.235 1.235 1.235h.52c.682 0 1.235-.553 1.235-1.235V80.722c0-.682-.553-1.235-1.235-1.235zm.271 26.484h-.899c-.683 0-1.236.553-1.236 1.235v22.702c0 .682.553 1.235 1.236 1.235h.899c.682 0 1.235-.553 1.235-1.235v-22.702c0-.682-.553-1.235-1.235-1.235zm-.109 33.98h-.736c-.683 0-1.236.553-1.236 1.236v22.918c0 .682.553 1.235 1.236 1.235h.736c.683 0 1.236-.553 1.236-1.235v-22.918c0-.683-.553-1.236-1.236-1.236z" fill="#3F3D56"/><path d="M112.631 207.088a.553.553 0 00.656.084 2.303 2.303 0 01-.656-.084z" fill="url(#paint0_linear)"/><path d="M137.431 216.786l-.647 3.526-.5 2.697-.909 4.934-8.81 6.166s-.795-.68-2.105-1.751c-3.61-2.972-11.2-9.024-16.772-12.273a18.773 18.773 0 00-4.61-2.124l34.353-1.175z" fill="#FEB9B9"/><path d="M130.968 219.409s10.272 1.763 10.874-2.623c.602-4.386-5.288-6.756-10.279-7.051-4.991-.295-34.947 1.763-34.947 1.763s-5.284 7.045 13.8 8.224l20.552-.313z" fill="#3F3D56"/><path d="M153.433 74.68H99.692v63.707h53.741V74.68z" fill="#2F2E41"/><path opacity=".1" d="M153.433 74.969H99.692v63.707h53.741V74.969z" fill="#000"/><path d="M36.707 183.738c-.885.223-2.016 1.079-3.273 2.316-5.417 5.361-13.174 17.942-13.174 17.942-9.918-11.811 1.057-21.142 5.735-24.349a28.249 28.249 0 011.901-1.204l8.811 5.295zm100.134-88.951s2.644 18.494 11.747 22.898c9.104 4.404-11.747 12.634-11.747 12.634l-28.483-10.577s16.153-5.286 12.921-20.847l15.562-4.108zM106.3 206.053l-.644 3.514-.524 2.707-.908 4.933-8.81 6.161s-.795-.674-2.105-1.744c-3.611-2.973-11.2-9.025-16.78-12.274a18.655 18.655 0 00-4.611-2.123l34.382-1.174z" fill="#FEB9B9"/><path d="M98.679 210.386s9.219.065 9.774-4.333c.555-4.399-5.024-6.756-9.774-7.051-4.75-.295-33.61 1.899-33.61 1.899s-4.094 8.307 14.059 9.484l19.55.001z" fill="#2F2E41"/><path d="M163.321 279.483c-.403-.199-.807-.403-1.204-.602l-1.083-1.365-14.209-18.013v.313c-.096 3.008-1.119 26.845-9.099 29.047-8.516 2.346-18.789 2.936-23.472-12.917s-13.239-50.496-22.026-52.553l13.071-10.715s8.654 10.12 12.18 19.806c-.132-.602-6.108-28.518-1.203-33.457h42.882s6.62 18.849 11.157 28.187c3.533 7.25 8.835 24.39 12.249 35.99 3.379 11.454-8.495 21.567-19.243 16.279z" fill="#3F3D56"/><path opacity=".1" d="M162.099 204.29c-6.62 3.917-35.681 2.322-45.135 1.685l-2.576-.187c-.277 0 .042-.156.042-.156l.265-2.666 7.047-17.905 37.733-21.875c-.764 2.304-1.017 5.83-.956 9.867.174 12.971 3.58 31.237 3.58 31.237z" fill="#000"/><path d="M162.099 203.406c-6.62 3.917-35.681 2.322-45.135 1.685l-2.576-.181-.428-.036.47-.121 2.323-.601 4.989-19.962 37.733-21.87c-.764 2.304-1.017 5.83-.957 9.867.175 12.959 3.581 31.219 3.581 31.219z" fill="#EFEFEF"/><path opacity=".1" d="M158.494 172.175c-7.673 1.768-24.559 6.958-31.047 19.493-4.327 8.344-7.968 11.924-10.508 13.422l-2.576-.181a1.38 1.38 0 00.042-.156l2.323-.602 4.989-19.962 37.733-21.869c-.755 2.292-1.016 5.818-.956 9.855zm-130.598 6.281l8.811 5.283c-.885.223-2.016 1.079-3.274 2.316-.734-2.142-5.341-5.132-7.438-6.407 1.137-.765 1.901-1.192 1.901-1.192zm84.897 26.797a.524.524 0 01-.601-.084c.195.057.398.085.601.084z" fill="#000"/><path d="M132.731 116.512s-7.931.878-13.51-4.994c0 0-23.471 6.756-31.42 22.02-7.95 15.263-61.987 45.213-61.987 45.213s9.4 5.282 8.516 7.923l35.537-20.552s12.637-9.096 16.146-11.154c3.509-2.057 22.911-14.679 27.021 19.668 4.111 34.348 0 30.238 0 30.238s5.874 2.058 14.39-14.385c8.515-16.443 34.941-20.257 34.941-20.257l1.468-17.316s5.242-11.479 1.204-16.244a10.217 10.217 0 01-2.353-4.969c-.668-4.398 0-11.726 9.352-17.815 14.389-9.397 19.968-17.026 19.968-17.026s.294-5.583-8.516-8.224c-8.81-2.642-44.636-17.026-44.636-17.026l-1.204 4.993 28.267 19.944s-14.094 11.431-25.276 11.154c0 0 2.076 8.514-7.908 8.809z" fill="#FF7C50"/><path opacity=".1" d="M138.171 102.836a57.3 57.3 0 01-1.624-7.171l-15.563 4.11c.686 2.97.563 6.07-.355 8.977a16.74 16.74 0 0017.542-5.916z" fill="#000"/><path d="M125.245 108.438c9.243 0 16.736-7.491 16.736-16.732 0-9.24-7.493-16.731-16.736-16.731s-16.736 7.49-16.736 16.731c0 9.241 7.493 16.732 16.736 16.732z" fill="#FEB9B9"/><path opacity=".1" d="M143.449 226.454s9.69 19.084 6.753 24.95l-6.753-24.95z" fill="#000"/><path d="M134.145 53.063c4.646.53 9.058 2.52 13.632 3.61 1.143.355 2.36.4 3.526.132 1.775-.547 3.22-2.406 5.061-2.352 1.133.036 2.137.806 3.069 1.546a37.792 37.792 0 014.213 3.754c3.153 3.423 5.109 8.032 7.986 11.756 2.876 3.724 6.978 8.091 11.065 6.383-2.78 10.83-11.451 17.604-21.302 18.279-3.929.27-7.956-.548-11.759.601a10.19 10.19 0 01-2.968.722c-2.19 0-3.954-2.01-5.32-3.965-3.202-4.596-5.735-9.812-9.34-14.006-1.204-1.39-2.594-2.707-4.279-2.96-1.685-.252-3.231.554-4.73 1.33-2.473 1.282-5 2.605-6.92 4.813-1.92 2.209-3.13 5.469-2.335 8.423.427 1.6 1.402 3.045 1.42 4.717.036 2.671-2.323 4.621-2.787 7.22a27.282 27.282 0 00-.114 3.285c-.205 3.56-2.536 6.473-4.964 8.717-.951.866-1.997 1.805-2.275 3.147-.187.92 0 1.888-.12 2.821-.355 2.311-2.66 3.484-4.7 3.785a13.565 13.565 0 01-7.054-.836c2.853-1.349 4.61-5.186 3.948-8.622-.908-4.765-5.699-8.188-5.287-13.037a15.1 15.1 0 011.324-4.29 39.291 39.291 0 002.263-8.127c.36-2.148.535-4.428-.14-6.48-.6-1.865-1.858-3.35-2.924-4.928a28.015 28.015 0 01-3.388-6.936 4.878 4.878 0 01-.324-2.299 4.741 4.741 0 011.475-2.377c2.618-2.75 5.416-5.607 8.925-6.395a20.097 20.097 0 015.067-.193c2.94.093 5.883-.032 8.804-.373 2.407-.282 6.475-.246 8.516-1.805 1.901-1.456 2.973-3.285 5.313-4.21a15.656 15.656 0 017.427-.85h-.004z" fill="#2F2E41"/><path d="M445.127 402.189c13.408 0 24.278-1.837 24.278-4.104 0-2.267-10.87-4.105-24.278-4.105-13.409 0-24.278 1.838-24.278 4.105 0 2.267 10.869 4.104 24.278 4.104z" fill="#FF7C50"/><path d="M455.167 391.373a7.069 7.069 0 002.313-3.495c.302-1.382-.29-3.021-1.619-3.555-1.485-.568-3.075.465-4.275 1.502-1.199 1.038-2.584 2.228-4.16 2.004a6.328 6.328 0 001.965-5.921 2.494 2.494 0 00-.55-1.207c-.821-.882-2.32-.507-3.302.193-3.14 2.203-4.015 6.473-4.034 10.303-.32-1.382-.048-2.825-.06-4.225-.012-1.401-.392-3.021-1.594-3.761a4.8 4.8 0 00-2.415-.567c-1.413-.054-2.983.091-3.949 1.122-1.207 1.28-.881 3.429.157 4.829 1.039 1.401 2.627 2.3 4.088 3.272a9.053 9.053 0 012.914 2.783c.09.158.162.326.216.501h8.821a24.839 24.839 0 005.483-3.776l.001-.002z" fill="#FF7C50"/><path d="M115.043 404c8.849 0 16.022-1.212 16.022-2.708 0-1.497-7.173-2.709-16.022-2.709-8.848 0-16.022 1.212-16.022 2.709 0 1.496 7.174 2.708 16.022 2.708z" fill="#EFEFEF"/><path d="M121.67 396.862a4.666 4.666 0 001.526-2.307 2.058 2.058 0 00-1.068-2.346c-.981-.374-2.029.307-2.821.992-.793.685-1.706 1.47-2.745 1.323a4.177 4.177 0 001.294-3.908 1.646 1.646 0 00-.362-.797c-.54-.581-1.53-.334-2.179.128-2.072 1.456-2.65 4.27-2.662 6.799-.211-.912-.032-1.864-.04-2.788-.008-.924-.259-1.991-1.052-2.481a3.15 3.15 0 00-1.594-.374c-.933-.036-1.968.059-2.606.741-.797.844-.582 2.263.103 3.187.686.924 1.733 1.518 2.698 2.157a5.982 5.982 0 011.925 1.834c.06.105.108.216.143.331h5.822a16.404 16.404 0 003.618-2.494v.003zM24.432 404c8.849 0 16.022-1.212 16.022-2.708 0-1.497-7.173-2.709-16.022-2.709-8.849 0-16.022 1.212-16.022 2.709 0 1.496 7.173 2.708 16.022 2.708z" fill="#EFEFEF"/><path d="M31.058 396.862a4.663 4.663 0 001.526-2.307 2.055 2.055 0 00-1.068-2.346c-.98-.374-2.028.307-2.82.992-.793.685-1.706 1.47-2.746 1.323a4.176 4.176 0 001.295-3.908 1.646 1.646 0 00-.363-.797c-.539-.581-1.53-.334-2.179.128-2.072 1.456-2.65 4.27-2.662 6.799-.21-.912-.031-1.864-.04-2.788-.008-.924-.258-1.991-1.052-2.481a3.15 3.15 0 00-1.594-.374c-.932-.036-1.968.059-2.606.741-.796.844-.581 2.263.104 3.187.685.924 1.733 1.518 2.698 2.157a5.976 5.976 0 011.925 1.834c.06.105.107.216.143.331h5.822a16.373 16.373 0 003.617-2.494v.003z" fill="#EFEFEF"/><path d="M487 402.453H0v.983h487v-.983z" fill="#2F2E41"/><path d="M463.228 27.254s-50.839-3.067-44.849 32.546c0 0-1.208 6.296 4.516 9.151 0 0 .091-2.638 5.217-1.738 1.825.302 3.679.391 5.524.265a11.508 11.508 0 006.75-2.759s14.292-5.903 19.847-29.25c0 0 4.111-5.095 3.948-6.405l-8.579 3.664s2.934 6.187.604 11.327c0 0-.278-11.106-1.926-10.865-.332.049-4.456 2.143-4.456 2.143s5.042 10.774 1.238 18.61c0 0 1.443-13.28-2.814-17.831l-6.038 3.525s5.893 11.13 1.896 20.215c0 0 1.025-13.931-3.17-19.358l-5.47 4.267s5.536 10.968 2.161 18.502c0 0-.44-16.213-3.345-17.438 0 0-4.788 4.225-5.519 5.952 0 0 3.792 7.967 1.437 12.168 0 0-1.443-10.804-2.626-10.865 0 0-4.77 7.159-5.266 12.073 0 0 .206-7.298 4.112-12.749 0 0-4.613.791-7.306 3.776 0 0 .743-5.058 8.483-5.504 0 0 3.943-5.433 4.994-5.759 0 0-7.693-.647-12.36 1.425 0 0 4.106-4.774 13.773-2.602l5.403-4.412s-10.131-1.383-14.43.145c0 0 4.945-4.225 15.886-1.147l5.881-3.513s-8.64-1.86-13.784-1.207c0 0 5.434-2.928 15.511.247l4.226-1.888s-6.327-1.243-8.181-1.442c-1.854-.2-1.95-.706-1.95-.706a21.953 21.953 0 0111.888 1.322s8.925-3.324 8.774-3.885z" fill="#FF7C50"/><path d="M393.571 8.4s-22.944-1.383-20.263 14.71c0 0-.54 2.843 2.041 4.134 0 0 .042-1.207 2.36-.79.824.138 1.661.178 2.494.12a5.17 5.17 0 003.049-1.256s6.46-2.668 8.972-13.219c0 0 1.853-2.3 1.78-2.891l-3.876 1.654s1.323 2.794.284 5.118c0 0-.127-5.016-.869-4.9-.152 0-2.017.97-2.017.97s2.282 4.871.561 8.409c0 0 .652-6-1.274-8.059l-2.729 1.618s2.663 5.028.858 9.133c0 0 .465-6.295-1.431-8.746l-2.47 1.932s2.5 4.956.978 8.36c0 0-.205-7.327-1.515-7.882 0 0-2.162 1.907-2.494 2.692 0 0 1.715 3.622.652 5.499 0 0-.652-4.884-1.207-4.909 0 0-2.156 3.237-2.379 5.433a11.788 11.788 0 011.859-5.759 6.5 6.5 0 00-3.302 1.709s.338-2.288 3.834-2.487c0 0 1.811-2.457 2.258-2.608 0 0-3.477-.29-5.585.648 0 0 1.853-2.155 6.219-1.177l2.415-1.992s-4.581-.61-6.523.062c0 0 2.234-1.907 7.179-.519l2.657-1.587s-3.907-.84-6.231-.54c0 0 2.457-1.322 7.01.108l1.902-.851s-2.86-.562-3.702-.652c-.841-.09-.881-.32-.881-.32a9.896 9.896 0 015.373.604s4.084-1.518 4.013-1.77zM39.751 254.07s-22.943-1.382-20.263 14.71c0 0-.54 2.844 2.041 4.135 0 0 .042-1.207 2.36-.791.824.139 1.661.179 2.494.121a5.174 5.174 0 003.05-1.256s6.46-2.668 8.971-13.219c0 0 1.854-2.299 1.78-2.891l-3.876 1.654s1.323 2.794.284 5.118c0 0-.127-5.016-.869-4.901-.151 0-2.017.971-2.017.971s2.282 4.871.562 8.409c0 0 .652-6-1.274-8.059l-2.73 1.618s2.664 5.028.858 9.133c0 0 .465-6.295-1.43-8.746l-2.47 1.932s2.5 4.955.978 8.361c0 0-.205-7.328-1.516-7.883 0 0-2.161 1.907-2.494 2.692 0 0 1.715 3.622.652 5.499 0 0-.652-4.884-1.207-4.909 0 0-2.156 3.237-2.379 5.433a11.78 11.78 0 011.86-5.759 6.501 6.501 0 00-3.303 1.709s.338-2.288 3.834-2.487c0 0 1.812-2.457 2.259-2.608 0 0-3.478-.289-5.586.648 0 0 1.854-2.155 6.22-1.177l2.415-1.992s-4.581-.61-6.524.062c0 0 2.234-1.907 7.18-.519l2.656-1.587s-3.907-.839-6.23-.54c0 0 2.456-1.322 7.01.108l1.901-.851s-2.86-.562-3.701-.652c-.842-.091-.882-.32-.882-.32a9.903 9.903 0 015.374.604s4.083-1.518 4.012-1.77z" fill="#3F3D56"/></g><defs><linearGradient id="paint0_linear" x1="112.962" y1="207.244" x2="112.962" y2="207.088" gradientUnits="userSpaceOnUse"><stop stop-color="gray" stop-opacity=".251"/><stop offset=".54" stop-color="gray" stop-opacity=".122"/><stop offset="1" stop-color="gray" stop-opacity=".102"/></linearGradient><clipPath id="clip0"><path fill="#fff" d="M0 0h487v404H0z"/></clipPath></defs></svg>